<?xml version="1.0" encoding="UTF-8"?>
<svg xmlns="http://www.w3.org/2000/svg" xmlns:xlink="http://www.w3.org/1999/xlink" width="420px" height="113px" viewBox="0 0 420 113" version="1.1">
<g id="surface1">
<path style=" stroke:none;fill-rule:nonzero;fill:rgb(0%,0%,0%);fill-opacity:1;" d="M 29.546875 29.496094 L 0.160156 58.949219 L 0.160156 83.246094 L 59.160156 83.246094 L 59.160156 113 L 88.847656 113 L 88.847656 59.136719 L 30.035156 59.136719 L 59.535156 29.566406 L 89.035156 0 L 58.96875 0 Z M 29.546875 29.496094 "/>
<path style=" stroke:none;fill-rule:nonzero;fill:rgb(0%,0%,0%);fill-opacity:1;" d="M 101.625 14.953125 L 101.625 29.945312 L 116.242188 15.066406 L 130.898438 0.1875 L 130.898438 14.878906 L 130.933594 29.566406 L 116.28125 44.257812 L 101.625 58.949219 L 101.625 88.894531 L 160.625 88.894531 L 160.625 58.949219 L 131.308594 88.328125 L 131.308594 59.324219 L 160.625 29.945312 L 160.625 0 L 101.625 0 Z M 101.625 14.953125 "/>
<path style=" stroke:none;fill-rule:nonzero;fill:rgb(0%,0%,0%);fill-opacity:1;" d="M 186.550781 74.015625 L 186.550781 88.894531 L 188.804688 88.894531 L 188.804688 59.136719 L 186.550781 59.136719 Z M 186.550781 74.015625 "/>
<path style=" stroke:none;fill-rule:nonzero;fill:rgb(0%,0%,0%);fill-opacity:1;" d="M 227.136719 60.832031 C 225.746094 62.226562 225.59375 62.566406 226.007812 63.09375 C 226.269531 63.390625 226.648438 63.65625 226.835938 63.65625 C 227.136719 63.65625 229.316406 62.148438 230.667969 60.980469 C 230.96875 60.71875 229.578125 59.171875 229.015625 59.136719 C 228.902344 59.136719 228.039062 59.890625 227.136719 60.832031 Z M 227.136719 60.832031 "/>
<path style=" stroke:none;fill-rule:nonzero;fill:rgb(0%,0%,0%);fill-opacity:1;" d="M 263.960938 65.199219 C 261.183594 66.332031 259.34375 69.53125 259.304688 73.261719 C 259.265625 76.5 260.128906 78.421875 262.386719 80.003906 C 263.699219 80.945312 264.265625 81.09375 266.480469 81.09375 C 268.132812 81.132812 269.449219 80.910156 270.160156 80.53125 C 272.457031 79.289062 273.996094 76.839844 274.371094 73.789062 L 274.597656 71.941406 L 270.953125 71.941406 C 268.132812 71.941406 267.347656 72.058594 267.347656 72.46875 C 267.347656 72.734375 267.234375 73.527344 267.117188 74.164062 L 266.894531 75.332031 L 268.621094 75.332031 C 269.5625 75.332031 270.351562 75.484375 270.351562 75.671875 C 270.351562 76.464844 268.320312 77.59375 266.96875 77.59375 C 264.113281 77.59375 262.347656 74.84375 263.210938 71.71875 C 264.1875 68.214844 267.722656 67.007812 270.085938 69.34375 L 271.214844 70.511719 L 272.570312 69.757812 C 273.320312 69.308594 273.960938 68.816406 274.035156 68.628906 C 274.183594 68.101562 272.304688 65.953125 271.066406 65.351562 C 269.863281 64.710938 265.429688 64.636719 263.960938 65.199219 Z M 263.960938 65.199219 "/>
<path style=" stroke:none;fill-rule:nonzero;fill:rgb(0%,0%,0%);fill-opacity:1;" d="M 200.90625 72.582031 C 199.816406 76.691406 198.914062 80.269531 198.953125 80.492188 C 198.953125 80.832031 199.554688 80.984375 200.640625 80.984375 C 202.519531 80.984375 202.335938 81.320312 203.6875 75.558594 C 204.0625 73.976562 204.4375 72.695312 204.550781 72.695312 C 204.703125 72.695312 205.304688 74.503906 205.90625 76.730469 C 207.445312 82.265625 207.78125 82.226562 210.789062 76.464844 L 213.046875 72.128906 L 213.15625 76.539062 L 213.269531 80.984375 L 216.617188 80.984375 L 216.617188 77.105469 C 216.617188 74.957031 216.5 71.378906 216.347656 69.191406 L 216.125 65.164062 L 213.046875 65.164062 L 210.828125 69.496094 C 209.625 71.90625 208.535156 73.789062 208.460938 73.710938 C 208.347656 73.5625 207.59375 70.925781 206.464844 66.746094 C 206.054688 65.199219 206.015625 65.164062 204.476562 65.164062 L 202.859375 65.164062 Z M 200.90625 72.582031 "/>
<path style=" stroke:none;fill-rule:nonzero;fill:rgb(0%,0%,0%);fill-opacity:1;" d="M 221.5 72.695312 C 219.429688 76.839844 217.742188 80.378906 217.742188 80.605469 C 217.742188 80.796875 218.566406 80.984375 219.542969 80.984375 C 221.3125 80.984375 221.425781 80.945312 222.0625 79.476562 L 222.738281 77.96875 L 228.226562 77.96875 L 228.640625 79.476562 L 229.050781 80.984375 L 230.96875 80.984375 C 232.734375 80.984375 232.847656 80.945312 232.621094 80.117188 C 232.507812 79.667969 231.605469 76.125 230.628906 72.246094 L 228.828125 65.164062 L 225.257812 65.164062 Z M 227.363281 74.84375 C 227.285156 74.917969 226.535156 74.957031 225.746094 74.882812 L 224.242188 74.769531 L 225.40625 72.320312 L 226.535156 69.871094 L 227.023438 72.28125 C 227.285156 73.601562 227.4375 74.769531 227.363281 74.84375 Z M 227.363281 74.84375 "/>
<path style=" stroke:none;fill-rule:nonzero;fill:rgb(0%,0%,0%);fill-opacity:1;" d="M 235.101562 72.394531 C 234.648438 76.386719 234.277344 79.964844 234.277344 80.34375 C 234.277344 80.945312 234.648438 80.984375 238.332031 80.910156 L 242.355469 80.796875 L 242.582031 79.175781 L 242.769531 77.59375 L 238.183594 77.59375 L 238.820312 72.019531 C 239.761719 64.488281 239.839844 65.164062 237.734375 65.164062 L 235.929688 65.164062 Z M 235.101562 72.394531 "/>
<path style=" stroke:none;fill-rule:nonzero;fill:rgb(0%,0%,0%);fill-opacity:1;" d="M 247.054688 72.660156 C 244.984375 76.839844 243.292969 80.378906 243.292969 80.605469 C 243.292969 80.796875 244.121094 80.984375 245.097656 80.984375 C 246.863281 80.984375 246.976562 80.945312 247.617188 79.476562 L 248.292969 77.96875 L 253.703125 77.96875 L 254.15625 79.476562 C 254.566406 80.945312 254.644531 80.984375 256.222656 80.984375 C 257.085938 80.984375 257.914062 80.871094 258.023438 80.757812 C 258.136719 80.644531 257.386719 77.140625 256.296875 72.960938 L 254.34375 65.351562 L 252.578125 65.238281 L 250.847656 65.125 Z M 252.464844 71.832031 C 252.578125 72.621094 252.800781 73.640625 252.914062 74.089844 C 253.140625 74.882812 253.027344 74.957031 251.449219 74.957031 L 249.722656 74.957031 L 250.699219 72.695312 C 251.261719 71.453125 251.785156 70.4375 251.9375 70.4375 C 252.089844 70.4375 252.3125 71.078125 252.464844 71.832031 Z M 252.464844 71.832031 "/>
<path style=" stroke:none;fill-rule:nonzero;fill:rgb(0%,0%,0%);fill-opacity:1;" d="M 277.679688 73.035156 L 273.730469 80.984375 L 275.761719 80.984375 C 277.753906 80.984375 277.789062 80.984375 278.390625 79.476562 L 278.996094 77.96875 L 284.554688 77.96875 L 284.894531 79.363281 C 285.195312 80.683594 285.34375 80.796875 286.660156 80.910156 C 287.449219 80.984375 288.3125 80.945312 288.539062 80.871094 C 288.878906 80.71875 288.460938 78.574219 287.074219 73.035156 L 285.15625 65.351562 L 283.390625 65.238281 L 281.664062 65.125 Z M 283.429688 72.886719 C 283.652344 73.902344 283.765625 74.808594 283.691406 74.882812 C 283.652344 74.957031 282.902344 74.957031 282.074219 74.882812 L 280.609375 74.769531 L 281.550781 72.582031 C 282.074219 71.378906 282.601562 70.550781 282.75 70.699219 C 282.941406 70.851562 283.238281 71.832031 283.429688 72.886719 Z M 283.429688 72.886719 "/>
<path style=" stroke:none;fill-rule:nonzero;fill:rgb(0%,0%,0%);fill-opacity:1;" d="M 358.921875 89.648438 C 357.835938 90.511719 357.15625 92.433594 357.15625 94.617188 C 357.15625 95.636719 357.007812 96.050781 356.59375 96.050781 C 356.179688 96.050781 356.03125 96.464844 356.03125 97.558594 C 356.03125 98.648438 356.179688 99.0625 356.59375 99.0625 C 357.042969 99.0625 357.15625 99.777344 357.15625 103.207031 L 357.15625 107.351562 L 360.914062 107.351562 L 360.914062 99.0625 L 362.230469 99.0625 C 363.507812 99.0625 363.546875 99.023438 363.546875 97.558594 C 363.546875 96.085938 363.507812 96.050781 362.230469 96.050781 C 360.914062 96.050781 360.914062 96.050781 360.914062 94.355469 C 360.914062 92.546875 361.554688 91.832031 362.871094 92.207031 C 363.507812 92.359375 363.582031 92.207031 363.46875 90.738281 L 363.359375 89.082031 L 361.628906 88.96875 C 360.351562 88.894531 359.675781 89.042969 358.921875 89.648438 Z M 358.921875 89.648438 "/>
<path style=" stroke:none;fill-rule:nonzero;fill:rgb(0%,0%,0%);fill-opacity:1;" d="M 246.675781 93.035156 L 246.675781 96.839844 L 245.550781 96.238281 C 240.851562 93.792969 236.191406 99.628906 238.785156 104.714844 C 240.101562 107.3125 242.878906 108.367188 245.210938 107.199219 C 246 106.785156 246.527344 106.710938 246.601562 106.972656 C 246.675781 107.160156 247.503906 107.351562 248.40625 107.351562 L 250.058594 107.351562 L 250.058594 89.269531 L 246.675781 89.269531 Z M 246.074219 99.890625 C 247.953125 102.566406 244.796875 105.84375 242.542969 103.582031 C 240.929688 101.960938 242.015625 99.0625 244.234375 99.0625 C 245.136719 99.0625 245.699219 99.328125 246.074219 99.890625 Z M 246.074219 99.890625 "/>
<path style=" stroke:none;fill-rule:nonzero;fill:rgb(0%,0%,0%);fill-opacity:1;" d="M 277.378906 89.949219 C 276.101562 91.34375 277.078125 93.792969 278.882812 93.792969 C 279.671875 93.792969 280.871094 92.359375 280.871094 91.417969 C 280.871094 89.570312 278.582031 88.628906 277.378906 89.949219 Z M 277.378906 89.949219 "/>
<path style=" stroke:none;fill-rule:nonzero;fill:rgb(0%,0%,0%);fill-opacity:1;" d="M 337.992188 98.308594 L 337.992188 107.351562 L 341.75 107.351562 L 341.75 89.269531 L 337.992188 89.269531 Z M 337.992188 98.308594 "/>
<path style=" stroke:none;fill-rule:nonzero;fill:rgb(0%,0%,0%);fill-opacity:1;" d="M 392.367188 89.949219 C 391.507812 90.886719 391.578125 92.132812 392.480469 93.035156 C 393.382812 93.941406 393.90625 93.976562 395.039062 93.1875 C 396.613281 92.09375 395.710938 89.269531 393.722656 89.269531 C 393.308594 89.269531 392.707031 89.570312 392.367188 89.949219 Z M 392.367188 89.949219 "/>
<path style=" stroke:none;fill-rule:nonzero;fill:rgb(0%,0%,0%);fill-opacity:1;" d="M 288.613281 91.304688 C 287.035156 93.1875 287 93.449219 288.050781 94.128906 C 288.804688 94.582031 289.027344 94.46875 290.605469 92.847656 L 292.335938 91.117188 L 291.433594 90.363281 C 290.945312 89.988281 290.417969 89.648438 290.265625 89.648438 C 290.082031 89.648438 289.328125 90.398438 288.613281 91.304688 Z M 288.613281 91.304688 "/>
<path style=" stroke:none;fill-rule:nonzero;fill:rgb(0%,0%,0%);fill-opacity:1;" d="M 369.820312 91.53125 L 368.429688 93.414062 L 369.410156 94.015625 C 370.347656 94.65625 370.386719 94.65625 372.113281 92.886719 L 373.878906 91.117188 L 372.941406 90.398438 C 372.414062 89.988281 371.8125 89.648438 371.625 89.648438 C 371.402344 89.648438 370.609375 90.476562 369.820312 91.53125 Z M 369.820312 91.53125 "/>
<path style=" stroke:none;fill-rule:nonzero;fill:rgb(0%,0%,0%);fill-opacity:1;" d="M 201.207031 99.0625 L 201.207031 107.351562 L 204.964844 107.351562 L 204.964844 100.609375 L 207.332031 100.496094 L 209.660156 100.378906 L 209.773438 98.761719 L 209.886719 97.179688 L 204.964844 97.179688 L 204.964844 94.203125 L 207.519531 94.089844 L 210.035156 93.976562 L 210.148438 92.359375 L 210.261719 90.777344 L 201.207031 90.777344 Z M 201.207031 99.0625 "/>
<path style=" stroke:none;fill-rule:nonzero;fill:rgb(0%,0%,0%);fill-opacity:1;" d="M 314.691406 92.472656 L 314.691406 94.167969 L 318.078125 94.167969 L 318.078125 107.351562 L 321.832031 107.351562 L 321.832031 94.167969 L 325.214844 94.167969 L 325.214844 90.777344 L 314.691406 90.777344 Z M 314.691406 92.472656 "/>
<path style=" stroke:none;fill-rule:nonzero;fill:rgb(0%,0%,0%);fill-opacity:1;" d="M 230.070312 96.203125 C 229.464844 96.503906 229.015625 96.613281 229.015625 96.390625 C 229.015625 96.203125 228.1875 96.050781 227.136719 96.050781 L 225.257812 96.050781 L 225.257812 107.351562 L 229.015625 107.351562 L 229.015625 103.660156 C 229.015625 99.777344 229.277344 99.0625 230.707031 99.0625 C 232.132812 99.0625 232.398438 99.777344 232.398438 103.660156 L 232.398438 107.351562 L 236.152344 107.351562 L 236.152344 102.828125 C 236.152344 98.460938 236.117188 98.269531 235.140625 97.179688 C 233.859375 95.75 231.644531 95.335938 230.070312 96.203125 Z M 230.070312 96.203125 "/>
<path style=" stroke:none;fill-rule:nonzero;fill:rgb(0%,0%,0%);fill-opacity:1;" d="M 254.980469 96.351562 C 251.523438 98.234375 251.335938 104.5625 254.679688 106.785156 C 256.109375 107.726562 258.101562 107.917969 259.414062 107.238281 C 260.054688 106.894531 260.582031 106.824219 260.582031 107.011719 C 260.582031 107.199219 261.445312 107.351562 262.460938 107.351562 L 264.335938 107.351562 L 264.335938 96.050781 L 262.460938 96.050781 C 261.40625 96.050781 260.582031 96.238281 260.582031 96.464844 C 260.582031 96.652344 260.207031 96.574219 259.753906 96.277344 C 258.625 95.484375 256.523438 95.523438 254.980469 96.351562 Z M 260.167969 100.042969 C 260.617188 100.609375 260.957031 101.324219 260.957031 101.699219 C 260.957031 102.753906 259.492188 104.335938 258.511719 104.335938 C 256.371094 104.335938 255.132812 101.777344 256.445312 100.082031 C 257.539062 98.726562 259.117188 98.726562 260.167969 100.042969 Z M 260.167969 100.042969 "/>
<path style=" stroke:none;fill-rule:nonzero;fill:rgb(0%,0%,0%);fill-opacity:1;" d="M 269.296875 96.3125 C 267.457031 97.21875 266.480469 98.875 266.292969 101.285156 C 266.140625 104.074219 267.007812 105.730469 269.222656 106.894531 C 271.027344 107.800781 272.378906 107.953125 273.882812 107.351562 C 274.75 107.046875 274.859375 106.785156 274.859375 105.277344 C 274.859375 103.695312 274.449219 103.09375 273.921875 103.957031 C 273.582031 104.523438 271.742188 104.410156 270.800781 103.734375 C 269.75 102.980469 269.636719 100.609375 270.648438 99.703125 C 271.441406 98.988281 273.058594 98.875 274.144531 99.441406 C 274.785156 99.816406 274.859375 99.703125 274.859375 98.121094 C 274.859375 96.613281 274.75 96.351562 273.882812 96.050781 C 272.492188 95.523438 270.726562 95.597656 269.296875 96.3125 Z M 269.296875 96.3125 "/>
<path style=" stroke:none;fill-rule:nonzero;fill:rgb(0%,0%,0%);fill-opacity:1;" d="M 285.832031 96.464844 C 281.925781 98.421875 281.734375 104.523438 285.496094 106.824219 C 287.222656 107.839844 290.980469 107.800781 292.410156 106.746094 C 294.175781 105.429688 295.15625 103.660156 295.15625 101.777344 C 295.15625 97.066406 290.265625 94.28125 285.832031 96.464844 Z M 290.792969 99.890625 C 292.109375 101.777344 291.09375 104.335938 289.066406 104.335938 C 288.425781 104.335938 287.5625 104.074219 287.183594 103.695312 C 286.320312 102.941406 286.28125 100.683594 287.148438 99.742188 C 288.015625 98.761719 290.082031 98.839844 290.792969 99.890625 Z M 290.792969 99.890625 "/>
<path style=" stroke:none;fill-rule:nonzero;fill:rgb(0%,0%,0%);fill-opacity:1;" d="M 301.84375 96.203125 C 301.238281 96.503906 300.789062 96.613281 300.789062 96.390625 C 300.789062 96.203125 299.964844 96.050781 298.910156 96.050781 L 297.03125 96.050781 L 297.03125 107.351562 L 300.789062 107.351562 L 300.789062 103.660156 C 300.789062 99.628906 301.015625 99.0625 302.746094 99.0625 C 303.609375 99.0625 303.832031 99.289062 304.136719 100.457031 C 304.359375 101.246094 304.546875 103.132812 304.546875 104.601562 L 304.546875 107.351562 L 307.929688 107.351562 L 307.929688 102.828125 C 307.929688 98.460938 307.890625 98.269531 306.914062 97.179688 C 305.636719 95.75 303.417969 95.335938 301.84375 96.203125 Z M 301.84375 96.203125 "/>
<path style=" stroke:none;fill-rule:nonzero;fill:rgb(0%,0%,0%);fill-opacity:1;" d="M 327.542969 96.425781 C 325.703125 97.558594 324.839844 99.253906 324.839844 101.738281 C 324.839844 105.582031 327.359375 107.953125 331.113281 107.574219 C 333.332031 107.386719 334.535156 106.710938 335.4375 105.164062 C 336.074219 104.074219 336.074219 104.035156 335.25 103.808594 C 333.859375 103.433594 332.695312 103.546875 332.128906 104.148438 C 331.042969 105.242188 329.011719 104.636719 328.484375 103.09375 C 328.261719 102.53125 328.597656 102.453125 332.242188 102.453125 L 336.226562 102.453125 L 336.003906 100.71875 C 335.925781 99.742188 335.515625 98.535156 335.101562 97.972656 C 333.484375 95.75 329.875 94.996094 327.542969 96.425781 Z M 331.90625 98.910156 C 333.21875 99.816406 332.882812 100.191406 330.664062 100.191406 C 329.539062 100.191406 328.597656 100.042969 328.597656 99.855469 C 328.597656 99.402344 330.101562 98.308594 330.664062 98.308594 C 330.890625 98.308594 331.453125 98.574219 331.90625 98.910156 Z M 331.90625 98.910156 "/>
<path style=" stroke:none;fill-rule:nonzero;fill:rgb(0%,0%,0%);fill-opacity:1;" d="M 346.636719 96.351562 C 345.054688 97.105469 343.628906 99.703125 343.628906 101.699219 C 343.628906 103.660156 345.054688 106.21875 346.636719 107.046875 C 349.191406 108.367188 352.648438 107.613281 354.300781 105.355469 C 354.976562 104.449219 355.015625 104.261719 354.527344 103.957031 C 353.664062 103.394531 351.671875 103.507812 351.148438 104.148438 C 350.503906 104.941406 348.777344 104.863281 348.027344 104.035156 C 346.785156 102.640625 347.199219 102.453125 351.332031 102.453125 L 355.28125 102.453125 L 355.050781 100.832031 C 354.902344 99.96875 354.488281 98.726562 354.113281 98.085938 C 352.761719 95.824219 349.265625 94.996094 346.636719 96.351562 Z M 350.804688 98.6875 C 352.234375 99.480469 351.671875 100.191406 349.640625 100.191406 C 348.25 100.191406 347.761719 100.042969 347.761719 99.628906 C 347.761719 98.574219 349.527344 98.007812 350.804688 98.6875 Z M 350.804688 98.6875 "/>
<path style=" stroke:none;fill-rule:nonzero;fill:rgb(0%,0%,0%);fill-opacity:1;" d="M 367.414062 96.425781 C 365.273438 97.371094 364.296875 99.023438 364.296875 101.699219 C 364.296875 104.375 365.273438 106.03125 367.414062 106.972656 C 370.761719 108.519531 374.332031 107.351562 375.90625 104.226562 C 378.578125 98.839844 373.089844 93.828125 367.414062 96.425781 Z M 372.226562 99.855469 C 372.863281 100.496094 372.976562 100.945312 372.789062 102.039062 C 372.304688 105.164062 368.65625 105.164062 367.867188 102.074219 C 367.304688 99.742188 370.496094 98.121094 372.226562 99.855469 Z M 372.226562 99.855469 "/>
<path style=" stroke:none;fill-rule:nonzero;fill:rgb(0%,0%,0%);fill-opacity:1;" d="M 383.273438 96.277344 C 382.5625 96.652344 382.109375 96.691406 382.035156 96.464844 C 381.957031 96.238281 381.132812 96.050781 380.230469 96.050781 L 378.578125 96.050781 L 378.578125 107.351562 L 381.957031 107.351562 L 381.957031 104.226562 C 381.957031 100.796875 382.484375 99.328125 383.765625 99.136719 C 385.414062 98.910156 385.71875 99.628906 385.71875 103.621094 L 385.71875 107.351562 L 389.476562 107.351562 L 389.476562 103.28125 C 389.476562 100.191406 389.324219 98.949219 388.800781 97.933594 C 387.746094 95.789062 385.492188 95.109375 383.273438 96.277344 Z M 383.273438 96.277344 "/>
<path style=" stroke:none;fill-rule:nonzero;fill:rgb(0%,0%,0%);fill-opacity:1;" d="M 400.75 96.390625 C 399.019531 97.292969 397.742188 99.554688 397.742188 101.664062 C 397.742188 105.730469 401.800781 108.742188 405.410156 107.351562 C 406.273438 107.046875 406.386719 106.785156 406.386719 105.277344 C 406.386719 103.695312 406.3125 103.582031 405.671875 103.957031 C 402.929688 105.429688 400.296875 102.453125 402.101562 99.890625 C 402.742188 98.988281 404.394531 98.761719 405.671875 99.441406 C 406.3125 99.816406 406.386719 99.703125 406.386719 98.160156 C 406.386719 96.839844 406.199219 96.351562 405.671875 96.050781 C 404.542969 95.445312 402.175781 95.597656 400.75 96.390625 Z M 400.75 96.390625 "/>
<path style=" stroke:none;fill-rule:nonzero;fill:rgb(0%,0%,0%);fill-opacity:1;" d="M 410.480469 96.539062 C 407.175781 98.726562 407.023438 104.375 410.179688 106.710938 C 411.609375 107.761719 414.050781 107.992188 415.292969 107.160156 C 415.96875 106.710938 416.34375 106.632812 416.457031 106.894531 C 416.53125 107.160156 417.320312 107.351562 418.257812 107.351562 L 419.914062 107.351562 L 419.914062 96.050781 L 418.257812 96.050781 C 417.320312 96.050781 416.53125 96.238281 416.457031 96.503906 C 416.34375 96.804688 416.042969 96.765625 415.402344 96.3125 C 414.125 95.410156 411.984375 95.523438 410.480469 96.539062 Z M 415.78125 99.816406 C 417.28125 101.324219 416.15625 104.335938 414.089844 104.335938 C 412.023438 104.335938 410.855469 101.324219 412.285156 99.742188 C 413.074219 98.839844 414.84375 98.875 415.78125 99.816406 Z M 415.78125 99.816406 "/>
<path style=" stroke:none;fill-rule:nonzero;fill:rgb(0%,0%,0%);fill-opacity:1;" d="M 212.105469 100.609375 C 212.105469 105.089844 212.105469 105.164062 213.15625 106.21875 C 214.957031 107.992188 219.207031 108.179688 221.273438 106.558594 C 222.550781 105.542969 223 103.695312 223 99.515625 L 223 96.050781 L 219.246094 96.050781 L 219.246094 99.480469 C 219.246094 103.46875 218.90625 104.335938 217.367188 104.335938 C 215.824219 104.335938 215.484375 103.46875 215.484375 99.480469 L 215.484375 96.050781 L 212.105469 96.050781 Z M 212.105469 100.609375 "/>
<path style=" stroke:none;fill-rule:nonzero;fill:rgb(0%,0%,0%);fill-opacity:1;" d="M 277.117188 101.699219 L 277.117188 107.351562 L 280.496094 107.351562 L 280.496094 96.050781 L 277.117188 96.050781 Z M 277.117188 101.699219 "/>
<path style=" stroke:none;fill-rule:nonzero;fill:rgb(0%,0%,0%);fill-opacity:1;" d="M 392.105469 101.699219 L 392.105469 107.351562 L 395.488281 107.351562 L 395.488281 96.050781 L 392.105469 96.050781 Z M 392.105469 101.699219 "/>
</g>
</svg>
